Coordinates
version=1
nRows=12
nColumns=42
inDegrees=yes

Units are S.I. units (second, meters, Newtons, ...)
If the header above contains a line with 'inDegrees', this indicates whether rotational values are in degrees (yes) or radians (no).

endheader
time	pelvis_tilt	pelvis_list	pelvis_rotation	pelvis_tx	pelvis_ty	pelvis_tz	hip_flexion_r	hip_adduction_r	hip_rotation_r	knee_angle_r	knee_adduction_r	knee_angle_r_beta	ankle_angle_r	subtalar_angle_r	mtp_angle_r	hip_flexion_l	hip_adduction_l	hip_rotation_l	knee_angle_l	knee_adduction_l	knee_angle_l_beta	ankle_angle_l	subtalar_angle_l	mtp_angle_l	lumbar_extension	lumbar_bending	lumbar_rotation	arm_flex_r	arm_add_r	arm_rot_r	elbow_flex_r	pro_sup_r	wrist_flex_r	wrist_dev_r	arm_flex_l	arm_add_l	arm_rot_l	elbow_flex_l	pro_sup_l	wrist_flex_l	wrist_dev_l
      1.11000000	      3.01959580	     -6.04864948	      3.55883292	      0.54225633	      0.97314878	     -0.22982682	      7.46540098	      8.78702414	     -7.19814151	     14.86559879	     -0.65343761	      0.25945364	      3.44920023	     -2.22435058	     -7.54503919	      1.48229957	     -9.72811527	    -11.25246524	     56.44893699	     -5.91334013	      0.98521981	     -9.37662379	    -17.15850102	     -7.54503919	    -14.81075193	      9.64830623	      3.01246102	     -6.33225384	     -9.11862217	    -11.21321660	     26.72398612	     90.00000001	      0.00000000	      0.00000000	      7.78771422	     -6.78075096	      5.33496774	     43.92262414	     90.00000001	      0.00000000	      0.00000000
      1.12000000	      2.93024137	     -5.66697692	      3.61953859	      0.55611893	      0.97519846	     -0.22925098	      6.08279248	      8.46525942	     -7.02215277	     13.86852975	     -0.54449974	      0.24205151	      3.89508433	     -1.69668771	     -7.54438767	      3.58298103	     -9.33252991	    -11.70848786	     57.50522459	     -6.55820386	      1.00365551	     -8.06897647	    -17.12616765	     -7.54438767	    -14.80395639	      9.19280601	      3.30890975	     -5.87324821	     -9.11917808	    -10.97976756	     27.06550539	     90.00000001	      0.00000000	      0.00000000	      7.31117889	     -6.86861099	      5.29418793	     43.79055005	     90.00000001	      0.00000000	      0.00000000
      1.13000000	      2.79107871	     -5.24649434	      3.65448773	      0.56981002	      0.97696451	     -0.22856516	      4.78902225	      8.09989959	     -6.87176430	     12.90497303	     -0.44007004	      0.22523427	      4.30457031	     -1.22184271	     -7.54379043	      5.68860913	     -8.86517379	    -11.95419836	     58.24720640	     -6.94878414	      1.01660553	     -6.79621384	    -16.89628516	     -7.54379043	    -14.76300709	      8.66405202	      3.64423167	     -5.42067875	     -9.11217402	    -10.70224757	     27.44572223	     90.00000001	      0.00000000	      0.00000000	      6.84255087	     -7.00587104	      5.24416825	     43.65401212	     90.00000001	      0.00000000	      0.00000000
      1.14000000	      2.49220171	     -4.96488429	      3.66209891	      0.58356111	      0.97826519	     -0.22784250	      3.54991928	      7.89840404	     -6.15924075	     11.70356373	     -0.24746653	      0.20426572	      4.47204345	     -1.45949680	     -7.54077039	      7.90872756	     -8.53112988	    -12.00801826	     58.68733507	     -7.11805923	      1.02428723	     -5.24738653	    -15.80366787	     -7.54077039	    -14.50779603	      8.27809251	      3.91815375	     -5.02698912	     -9.26635865	     -9.63192716	     27.93361139	     90.00000001	      0.00000000	      0.00000000	      6.23611686	     -7.11225521	      5.08392082	     43.51475136	     90.00000001	      0.00000000	      0.00000000
      1.15000000	      2.29810426	     -4.50669704	      3.60579565	      0.59708983	      0.97946005	     -0.22714850	      2.42467616	      7.48216027	     -6.07380663	     10.92168090	     -0.18625451	      0.19061929	      4.83068652	     -1.04624243	     -7.54023328	      9.90845889	     -7.93853360	    -11.86336160	     58.76852073	     -7.01588779	      1.02570418	     -4.26957680	    -15.38412507	     -7.54023328	    -14.43322987	      7.69317865	      4.29549435	     -4.53334073	     -9.26383608	     -9.45781543	     28.42097238	     90.00000001	      0.00000000	      0.00000000	      5.71724588	     -7.28767670	      5.04803057	     43.34082239	     90.00000001	      0.00000000	      0.00000000
      1.16000000	      1.99285733	     -4.03196739	      3.56196448	      0.61068962	      0.98023736	     -0.22655827	      1.37024604	      7.01907185	     -5.78553791	     10.05509810	     -0.05866006	      0.17549457	      5.28869727	     -0.58434953	     -7.53964870	     11.91198395	     -7.25674488	    -11.42195212	     58.48545310	     -6.67776219	      1.02076372	     -3.24235827	    -14.58321406	     -7.53964870	    -14.20399350	      7.08756550	      4.58373956	     -4.07555246	     -9.31491249	     -9.11383253	     28.98981951	     90.00000001	      0.00000000	      0.00000000	      5.11960968	     -7.48509232	      4.98104773	     43.13253048	     90.00000001	      0.00000000	      0.00000000
      1.17000000	      1.91492890	     -3.62294146	      3.55205216	      0.62424287	      0.98101308	     -0.22599560	      0.08925299	      6.62775296	     -5.33972598	      9.21623414	      0.13387740	      0.16085363	      5.63117901	     -0.64230618	     -7.53816059	     13.54320576	     -6.67085070	    -10.76302657	     57.82211743	     -6.07942247	      1.00918633	     -1.83587977	    -12.91723180	     -7.53816059	    -14.25314118	      6.56918701	      4.78799240	     -3.56421948	     -9.53425389	     -7.97450860	     29.61661031	     90.00000001	      0.00000000	      0.00000000	      4.52444059	     -7.67301646	      4.74193826	     42.94500236	     90.00000001	      0.00000000	      0.00000000
      1.18000000	      1.60629892	     -3.28906091	      3.38530531	      0.63773178	      0.98112273	     -0.22516186	     -0.79894989	      6.35855232	     -5.07670290	      8.60191442	      0.14304406	      0.15013173	      5.99102184	     -0.29512807	     -7.53757558	     15.38049355	     -6.17097136	    -10.27793931	     56.93977546	     -5.52496797	      0.99378656	     -1.23922761	    -12.10604216	     -7.53757558	    -14.04924052	      6.08351220	      5.20119074	     -3.09910806	     -9.61394787	     -7.67749239	     30.32881236	     90.00000001	      0.00000000	      0.00000000	      3.91901019	     -7.88077753	      4.62728539	     42.71089893	     90.00000001	      0.00000000	      0.00000000
      1.19000000	      1.36658747	     -2.97102694	      3.22197093	      0.65123835	      0.98097459	     -0.22435140	     -1.72782458	      6.08695080	     -4.72404640	      8.05665956	      0.20759505	      0.14061524	      6.46302105	     -0.06149133	     -7.53696634	     17.02016403	     -5.68306136	     -9.55341066	     55.75379222	     -4.75165567	      0.97308724	     -0.52693646	    -11.15461409	     -7.53696634	    -13.92340388	      5.61375763	      5.57757405	     -2.61500517	     -9.74810280	     -7.15323556	     31.07332594	     90.00000001	      0.00000000	      0.00000000	      3.32737465	     -8.09147333	      4.42364245	     42.40478330	     90.00000001	      0.00000000	      0.00000000
      1.20000000	      1.59658352	     -2.69097270	      2.96091208	      0.66513146	      0.98121361	     -0.22353185	     -3.45826848	      5.86173244	     -3.32932915	      7.00016398	      0.45331878	      0.12217591	      6.24534406	     -1.46463048	     -7.53255424	     17.91522047	     -5.32039928	     -9.09629958	     54.07707528	     -4.03830126	      0.94382301	      0.36045502	     -9.81175711	     -7.53255424	    -14.30353067	      5.20101587	      6.01522220	     -2.10140712	    -10.07748604	     -5.97297408	     31.90630573	     90.00000001	      0.00000000	      0.00000000	      2.73518432	     -8.24163352	      4.01211595	     42.11500347	     90.00000001	      0.00000000	      0.00000000
      1.21000000	      1.35610276	     -2.51380266	      2.79386056	      0.67862472	      0.98034910	     -0.22259144	     -4.23500535	      5.78674579	     -3.13014269	      6.71392830	      0.39722267	      0.11718015	      6.79056516	     -1.22494115	     -7.53188652	     19.37266667	     -5.03034566	     -8.31493726	     52.35221734	     -3.18255725	      0.91371856	      0.81331784	     -9.26548914	     -7.53188652	    -14.16045823	      4.86055509	      6.34973395	     -1.58430796	    -10.21942296	     -5.47257966	     32.72547026	     90.00000001	      0.00000000	      0.00000000	      2.17180077	     -8.46389462	      3.70651082	     41.70822240	     90.00000001	      0.00000000	      0.00000000
      1.22000000	      1.20239004	     -2.37357207	      2.57338431	      0.69222055	      0.97931093	     -0.22161331	     -5.08209260	      5.75714932	     -2.87697589	      6.47700472	      0.33607747	      0.11304506	      7.33405386	     -1.06817237	     -7.53129398	     20.58851256	     -4.80433825	     -7.59220575	     50.30378193	     -2.34846407	      0.87796662	      1.15902365	     -8.81709679	     -7.53129398	    -14.10728306	      4.55156860	      6.73812914	     -1.06081711	    -10.41151955	     -4.87135113	     33.56958154	     90.00000001	      0.00000000	      0.00000000	      1.62592215	     -8.65816017	      3.33600113	     41.24899747	     90.00000001	      0.00000000	      0.00000000
